<svg width="64" height="65" viewBox="0 0 64 65" fill="none" xmlns="http://www.w3.org/2000/svg">
  <path fill-rule="evenodd" clip-rule="evenodd"
    d="M25.3333 53.8733C26.7879 54.2356 28 54.1148 29.2121 53.7526C34.6667 52.062 35.8788 49.8884 42.4242 49.6469C44 49.6469 46.5455 49.8884 47.8788 50.3715C48.2424 50.4922 49.0909 50.613 49.0909 50.0092V43.8507C49.0909 42.5224 47.6364 42.1601 44.6061 42.0394C37.0909 41.6771 33.9394 44.5752 28.6061 45.662C27.7576 45.7828 26.4242 45.7828 25.4545 45.662C25.2121 45.662 25.0909 45.7828 25.2121 46.0243V53.6318C25.0909 53.7526 25.2121 53.7526 25.3333 53.8733ZM25.3333 38.0545C26.7879 38.4167 28 38.296 29.2121 37.9337C34.6667 36.2432 35.8788 34.0696 42.4242 33.8281C44 33.8281 46.5455 34.0696 47.8788 34.5526C48.2424 34.6733 49.0909 34.7941 49.0909 34.1903V28.0318C49.0909 26.7035 47.5152 26.3413 44.6061 26.2205C37.0909 25.8582 34.0606 28.8771 28.6061 29.8432C27.7576 29.9639 26.4242 29.9639 25.4545 29.8432C25.2121 29.8432 25.0909 29.9639 25.2121 30.2054V37.813C25.0909 37.9337 25.2121 38.0545 25.3333 38.0545ZM15.7576 53.0281C17.2121 52.4243 19.3939 53.8733 20.2424 54.4771C21.0909 55.0809 22.1818 54.8394 22.1818 53.2696V14.145C22.1818 13.2998 21.5758 12.9375 20.7273 13.2998C19.3939 13.9035 17.2121 12.8167 16.3636 12.213C15.3939 11.4884 14.4242 11.8507 14.4242 13.662V52.3035C14.5455 53.1488 15.1515 53.2696 15.7576 53.0281ZM25.3333 22.3564C26.7879 22.7186 28 22.5979 29.2121 22.2356C34.6667 20.545 35.8788 18.3715 42.4242 18.1299C44 18.1299 46.5455 18.3715 47.8788 18.8545C48.2424 18.9752 49.0909 19.096 49.0909 18.4922V12.3337C49.0909 11.0054 47.6364 10.7639 44.6061 10.6432C37.0909 10.2809 33.9394 13.179 28.6061 14.2658C27.7576 14.3865 26.4242 14.3865 25.4545 14.2658C25.2121 14.2658 25.0909 14.3865 25.2121 14.6281V22.2356C25.0909 22.3564 25.2121 22.3564 25.3333 22.3564ZM32 3.27711C15.8788 3.27711 2.78788 16.3186 2.78788 32.4998C2.78788 48.5601 15.8788 61.7224 32 61.7224C48.1212 61.7224 61.2121 48.5601 61.2121 32.4998C61.2121 16.3186 48.1212 3.27711 32 3.27711ZM32 0.499756C49.5758 0.499756 64 14.8696 64 32.4998C64 50.1299 49.5758 64.4998 32 64.4998C14.303 64.379 0 50.0092 0 32.4998C0 14.8696 14.303 0.499756 32 0.499756Z"
    fill="#0670A0" />
</svg>