<svg width="77" height="77" viewBox="0 0 77 77" fill="none" xmlns="http://www.w3.org/2000/svg">
  <path fill-rule="evenodd" clip-rule="evenodd"
    d="M53.7987 36.4477L67.451 10.7714C67.7065 10.2907 67.3582 9.71094 66.8138 9.71094H53.5489C53.1678 9.71094 52.8179 9.92119 52.6389 10.2577L45.5618 23.568L52.41 36.4477C52.5463 36.7041 52.8129 36.8642 53.1032 36.8642H53.1055C53.3958 36.8642 53.6625 36.7041 53.7987 36.4477"
    fill="#00AA13" />
  <path fill-rule="evenodd" clip-rule="evenodd"
    d="M9.53126 10.7715L22.5681 35.29L29.6889 21.8975L23.5 10.2578C23.321 9.92124 22.9711 9.71094 22.59 9.71094H10.1685C9.62407 9.71094 9.27569 10.2908 9.53126 10.7715"
    fill="#00AA13" />
  <path fill-rule="evenodd" clip-rule="evenodd"
    d="M23.408 36.865H37.8739C38.255 36.865 38.605 36.6547 38.7839 36.3182L45.5628 23.569L38.7134 10.6871C38.5771 10.4307 38.3106 10.2705 38.0202 10.2705C37.7299 10.2705 37.4633 10.4307 37.327 10.6871L23.408 36.865Z"
    fill="#00AA13" />
</svg>