<svg width="254" height="56" viewBox="0 0 254 56" fill="none" xmlns="http://www.w3.org/2000/svg">
  <g clip-path="url(#clip0_511_439)">
    <g opacity="0.87">
      <path
        d="M59.3236 30.5469L52.7346 17.8035H55.9625L61.3869 28.3104L66.6115 17.8035H69.8395L63.1284 30.6687L69.9615 43.9435H66.7668L61.0097 32.8166L55.5854 43.9878H52.3574L59.3236 30.5469Z"
        fill="white" />
      <path
        d="M72.2461 25.1326H75.0636V26.9151C76.3948 25.5533 77.8812 24.8447 79.6671 24.8447C83.6494 24.8447 85.6349 28.1551 85.6349 34.7316C85.6349 41.3082 83.7714 44.1978 79.6671 44.1978C77.9699 44.1978 76.4724 43.5778 75.0636 42.2935V52.2579H72.2461V25.1215V25.1326ZM79.0792 42.3821C81.7747 42.3821 82.6399 39.9021 82.6399 34.7316C82.6399 29.5612 81.6416 26.7933 79.1568 26.7933C77.6704 26.7933 76.2616 27.7012 75.0969 29.4837V39.9021C76.2949 41.5517 77.7481 42.3821 79.0792 42.3821Z"
        fill="white" />
      <path
        d="M89.3626 25.2104H91.9694V28.0226C93.0011 26.0408 94.9977 24.9669 97.6489 24.9669C97.9817 24.9669 98.3588 25.0111 98.7249 25.0111V27.0372C98.4808 27.0372 98.148 26.993 97.8929 26.993C94.1214 26.993 92.1691 28.6426 92.1691 31.8755V43.9989H89.3516V25.2215L89.3626 25.2104Z"
        fill="white" />
      <path
        d="M105.736 44.4085C100.933 44.4085 98.7695 41.1867 98.7695 34.6102C98.7695 28.0337 100.922 24.7676 105.736 24.7676C110.55 24.7676 112.78 27.9894 112.78 34.2006V34.7763H101.631V35.0641C101.631 40.1903 102.918 42.6371 106.024 42.6371C108.509 42.6371 109.873 41.1092 109.873 38.1752H112.646C112.646 42.2717 110.162 44.4196 105.725 44.4196L105.736 44.4085ZM109.918 33.0713C109.751 28.7755 108.298 26.5833 105.902 26.5833C103.207 26.5833 101.887 28.7312 101.676 33.0713H109.918Z"
        fill="white" />
      <path
        d="M117.538 38.5738C117.748 41.1756 119.357 42.5485 121.842 42.5485C123.872 42.5485 125.28 41.4302 125.28 39.7806C125.28 37.6659 123.084 36.592 119.978 34.8205C116.994 33.0823 114.964 31.7648 114.964 29.2736C114.964 26.6718 117.371 24.9336 121.143 24.9336C125.158 24.9336 127.687 26.9154 127.898 30.5137H125.158C124.948 27.9893 123.506 26.6718 121.176 26.6718C119.146 26.6718 117.782 27.7015 117.782 29.2736C117.782 31.0562 119.645 32.0083 122.296 33.5694C125.902 35.6841 128.22 37.1234 128.22 39.8581C128.22 42.5927 125.613 44.2867 121.842 44.2867C117.538 44.2867 114.842 42.2163 114.676 38.5738H117.538Z"
        fill="white" />
      <path
        d="M132.413 38.5738C132.624 41.1756 134.232 42.5485 136.717 42.5485C138.747 42.5485 140.155 41.4302 140.155 39.7806C140.155 37.6659 137.959 36.592 134.853 34.8205C131.869 33.0823 129.839 31.7648 129.839 29.2736C129.839 26.6718 132.246 24.9336 136.018 24.9336C140.033 24.9336 142.563 26.9154 142.773 30.5137H140C139.789 27.9893 138.347 26.6718 136.018 26.6718C133.988 26.6718 132.624 27.7015 132.624 29.2736C132.624 31.0562 134.487 32.0083 137.138 33.5694C140.743 35.6841 143.062 37.1234 143.062 39.8581C143.062 42.5927 140.455 44.2867 136.683 44.2867C132.379 44.2867 129.684 42.2163 129.518 38.5738H132.413Z"
        fill="white" />
      <path
        d="M161.01 35.4295C161.01 41.4303 158.192 44.486 152.89 44.486C146.966 44.486 144.604 40.0242 144.604 30.8791C144.604 21.734 146.966 17.3164 152.89 17.3164C157.493 17.3164 160.388 20.2504 160.599 25.6754H157.571C157.36 21.4129 155.874 19.3093 152.89 19.3093C149.24 19.3093 147.831 23.1179 147.831 30.8901C147.831 38.6624 149.118 42.471 153.178 42.471C156.539 42.471 158.026 40.1128 158.114 35.3188H161.01V35.4406V35.4295Z"
        fill="white" />
      <path
        d="M176.174 34.5995C176.174 41.1317 173.978 44.3978 169.341 44.3978C164.704 44.3978 162.375 41.176 162.375 34.5995C162.375 28.0229 164.527 24.7568 169.341 24.7568C173.978 24.8011 176.174 28.0672 176.174 34.5995ZM165.359 34.5995C165.359 40.0135 166.269 42.5821 169.341 42.5821C172.114 42.5821 173.19 39.9802 173.19 34.5995C173.19 29.2187 172.114 26.6169 169.341 26.6169C166.313 26.6169 165.359 29.1855 165.359 34.5995Z"
        fill="white" />
      <path
        d="M179.99 25.2104H182.808V27.1147C184.505 25.6643 186.202 24.9668 187.988 24.9668C191.138 24.9668 192.381 26.7825 192.381 30.4694V44.7849H189.563V30.2258C189.563 27.9561 189.108 26.8711 187.367 26.8711C185.914 26.8711 184.383 27.7015 182.852 29.3511V43.9878H180.035L179.99 25.2104Z"
        fill="white" />
      <path
        d="M197.561 25.2104H200.378V27.1147C202.075 25.6644 203.772 24.9669 205.558 24.9669C208.709 24.9669 209.951 26.7826 209.951 30.4694V43.9989H207.134V30.2701C207.134 28.0005 206.679 26.9155 204.937 26.9155C203.484 26.9155 201.953 27.7458 200.422 29.3955V44.8182H197.605L197.561 25.2104Z"
        fill="white" />
      <path
        d="M220.222 44.4085C215.419 44.4085 213.256 41.1867 213.256 34.6102C213.256 28.0337 215.408 24.7676 220.222 24.7676C225.036 24.7676 227.266 27.9894 227.266 34.2006V34.7763H216.118V35.0641C216.118 40.1903 217.405 42.6371 220.51 42.6371C222.995 42.6371 224.36 41.1092 224.36 38.1752H227.133C227.133 42.2717 224.648 44.4196 220.211 44.4196L220.222 44.4085ZM224.404 33.0713C224.238 28.7755 222.829 26.5833 220.388 26.5833C217.693 26.5833 216.373 28.7312 216.162 33.0713H224.404Z"
        fill="white" />
      <path
        d="M242.686 38.5738C242.686 42.3381 240.113 44.4417 235.853 44.4417C231.05 44.4417 228.887 41.2199 228.887 34.6434C228.887 28.0669 231.039 24.8008 235.853 24.8008C239.702 24.8008 242.353 26.9155 242.686 30.6355H239.946C239.702 27.8676 238.415 26.5833 235.964 26.5833C232.769 26.5833 231.86 29.2294 231.86 34.6434C231.86 40.0574 232.769 42.6703 236.13 42.6703C238.537 42.6703 239.946 41.1867 239.979 38.3745H242.675V38.5849L242.686 38.5738Z"
        fill="white" />
      <path
        d="M251.67 42.4599C252.457 42.4599 253.156 42.3381 253.988 42.0835V43.866C253.078 44.0764 252.08 44.2425 251.17 44.2425C247.443 44.2425 246.367 42.9139 246.367 39.8138V26.9155H242.84V25.2215H246.367V19.1875H249.263V25.2215H253.988V26.9155H249.263V39.9467C249.263 41.7292 249.806 42.471 251.67 42.471V42.4599Z"
        fill="white" />
    </g>
    <path
      d="M178.626 52.2579C179.369 52.9997 180.245 53.3318 181.488 53.3318C182.941 53.3318 183.762 52.9554 183.762 52.4683C183.762 52.0143 183.141 51.7597 181.643 51.4718C180.401 51.2282 179.203 51.0622 178.282 50.7632C177.206 50.4311 176.629 49.8997 176.629 49.2354C176.629 48.1614 178.448 47.3311 181.233 47.3311C183.64 47.3311 185.248 47.8293 186.003 48.8146L183.595 49.2243C183.019 48.6043 182.264 48.3607 181.066 48.3607C179.868 48.3607 179.203 48.6486 179.203 49.1025C179.203 49.7668 180.567 49.8443 182.808 50.3425C185.171 50.8407 186.335 51.2504 186.335 52.3686C186.335 53.6086 184.549 54.439 181.532 54.439C178.925 54.439 177.095 53.8633 176.186 52.7893L178.626 52.2468V52.2579Z"
      fill="#E87D1E" />
    <path
      d="M189.564 47.4199H192.381V51.8485C192.381 52.845 193.047 53.2989 194.988 53.2989C197.063 53.2989 197.517 52.845 197.517 51.8485V47.4199H200.335V52.0146C200.335 53.5868 198.427 54.4504 194.988 54.4504C191.549 54.4504 189.52 53.5868 189.52 51.8043V47.4199H189.564Z"
      fill="#E87D1E" />
    <path
      d="M204.516 47.4199H209.574C212.891 47.4199 214.51 48.0842 214.51 49.4903C214.51 50.8189 212.891 51.5607 209.829 51.5607H207.222V54.3729H204.527V47.4199H204.516ZM209.197 50.4425C211.016 50.4425 211.848 50.1989 211.848 49.446C211.848 48.6932 211.016 48.4496 209.197 48.4496H207.211V50.3982L209.197 50.4425Z"
      fill="#E87D1E" />
    <path
      d="M217.861 47.4199H222.92C226.236 47.4199 227.856 48.0842 227.856 49.4903C227.856 50.8189 226.236 51.5607 223.175 51.5607H220.568V54.3729H217.872V47.4199H217.861ZM222.498 50.4425C224.317 50.4425 225.149 50.1989 225.149 49.446C225.149 48.6932 224.317 48.4496 222.498 48.4496H220.512V50.3982L222.498 50.4425Z"
      fill="#E87D1E" />
    <path d="M231.16 47.6631H233.856V53.1214H239.824V54.3171H231.16V47.6631Z" fill="#E87D1E" />
    <path
      d="M243.552 51.5939L239.447 47.4199H242.265L245.005 50.2764L247.7 47.4199H250.307L246.247 51.5939V54.3286H243.596V51.5939H243.552Z"
      fill="#E87D1E" />
    <path
      d="M69.9732 20.3277C60.9437 21.9773 50.6165 28.8528 44.3602 33.7686C40.5887 36.7468 38.5587 40.9651 36.1516 44.973C34.4101 47.8627 32.3357 50.5198 27.4106 50.6416C20.9103 50.8077 15.5636 42.8251 12.7461 38.9833C6.48982 30.3807 8.59743 31.2885 2.38553 22.6859C3.29513 24.092 -0.309985 18.4234 0.599614 20.0841C3.4948 25.332 16.0184 59.5764 27.699 55.6903C32.2581 54.1624 32.4689 48.9034 33.2897 45.4712C34.7761 39.5147 36.2293 33.4364 41.0768 29.6278C48.287 24.0034 58.9803 20.527 69.9621 20.3166"
      fill="url(#paint0_linear_511_439)" />
    <path
      d="M63.5063 13.7617C56.0077 15.7878 48.1319 19.7182 43.2067 24.3129C40.2228 27.0808 36.7064 33.3695 34.9649 36.8902C33.6781 39.4588 32.1473 41.8171 27.9987 42.271C22.53 42.8467 16.0186 33.4248 13.4118 30.358C7.53267 23.5379 9.39624 24.1911 3.5504 17.3268C4.41563 18.445 0.976904 13.9389 1.85323 15.2564C4.67076 19.4746 19.0136 50.619 28.6198 46.5225C32.347 44.906 32.1473 40.4885 32.6354 37.5102C33.5006 32.3841 36.8173 25.1433 40.6332 21.6336C46.2683 16.3857 52.4802 14.7249 61.7204 13.7728"
      fill="url(#paint1_linear_511_439)" />
    <path
      d="M64.7483 5.31401C56.3733 6.55403 47.0554 12.887 41.4647 17.4706C38.0704 20.2828 36.3732 24.335 34.3321 28.1879C32.8457 31.0001 31.0154 33.4801 26.4564 33.4026C20.4108 33.2808 15.0642 25.1764 12.2799 21.246C6.07911 12.4773 8.0647 13.4627 1.93046 4.66079C2.84005 6.06688 -0.765063 0.353949 0.144536 2.01468C3.08409 7.35118 16.2622 41.7173 27.0332 38.4069C31.2151 37.1226 31.1818 31.919 31.8363 28.5643C33.001 22.7296 34.077 16.8174 38.381 13.2634C44.6816 8.01548 54.4543 5.03722 64.7372 5.32508"
      fill="url(#paint2_linear_511_439)" />
    <path
      d="M57.2938 0.476105C50.7048 2.12577 43.8273 5.48045 39.601 9.48836C37.0275 11.9241 34.088 17.5153 32.6348 20.6928C31.5588 23.0068 30.2721 25.0771 26.6226 25.365C21.7751 25.7746 15.8073 17.0502 13.4001 14.1938C8.0202 7.8387 9.6841 8.50299 4.33743 2.13684C5.12501 3.1665 1.97469 -1.00749 2.76227 0.23253C5.36905 4.16294 18.8799 32.7387 27.2549 29.2622C30.5272 27.9004 30.2388 23.8482 30.5716 21.2021C31.1928 16.5742 33.966 10.1194 37.2383 7.0194C42.0858 2.4247 47.5545 1.0629 55.7187 0.44289"
      fill="url(#paint3_linear_511_439)" />
  </g>
  <defs>
    <linearGradient id="paint0_linear_511_439" x1="0.99895" y1="38.4408" x2="71.9915" y2="35.24"
      gradientUnits="userSpaceOnUse">
      <stop offset="0.02" stop-color="white" stop-opacity="0" />
      <stop offset="0.03" stop-color="#FCEFE4" stop-opacity="0.03" />
      <stop offset="0.05" stop-color="#F8D8BB" stop-opacity="0.07" />
      <stop offset="0.06" stop-color="#F4C295" stop-opacity="0.12" />
      <stop offset="0.08" stop-color="#F1AF75" stop-opacity="0.17" />
      <stop offset="0.1" stop-color="#EE9F59" stop-opacity="0.23" />
      <stop offset="0.13" stop-color="#EC9343" stop-opacity="0.3" />
      <stop offset="0.15" stop-color="#EA8932" stop-opacity="0.38" />
      <stop offset="0.19" stop-color="#E98227" stop-opacity="0.48" />
      <stop offset="0.23" stop-color="#E87E20" stop-opacity="0.62" />
      <stop offset="0.36" stop-color="#E87D1E" />
      <stop offset="0.43" stop-color="white" stop-opacity="0" />
      <stop offset="0.57" stop-color="#E87D1E" />
      <stop offset="0.69" stop-color="#E87E20" stop-opacity="0.71" />
      <stop offset="0.74" stop-color="#E98328" stop-opacity="0.57" />
      <stop offset="0.79" stop-color="#EA8A35" stop-opacity="0.46" />
      <stop offset="0.82" stop-color="#EC9547" stop-opacity="0.36" />
      <stop offset="0.86" stop-color="#EFA360" stop-opacity="0.28" />
      <stop offset="0.89" stop-color="#F2B47D" stop-opacity="0.2" />
      <stop offset="0.92" stop-color="#F5C9A1" stop-opacity="0.13" />
      <stop offset="0.94" stop-color="#FAE0CA" stop-opacity="0.07" />
      <stop offset="0.97" stop-color="white" stop-opacity="0" />
    </linearGradient>
    <linearGradient id="paint1_linear_511_439" x1="0.688494" y1="31.5537" x2="71.6811" y2="28.353"
      gradientUnits="userSpaceOnUse">
      <stop offset="0.03" stop-color="#FFFEFD" stop-opacity="0" />
      <stop offset="0.05" stop-color="#FAE3CF" stop-opacity="0.07" />
      <stop offset="0.07" stop-color="#F6CBA5" stop-opacity="0.14" />
      <stop offset="0.1" stop-color="#F2B681" stop-opacity="0.21" />
      <stop offset="0.12" stop-color="#EFA462" stop-opacity="0.29" />
      <stop offset="0.15" stop-color="#EC9649" stop-opacity="0.38" />
      <stop offset="0.18" stop-color="#EA8B36" stop-opacity="0.48" />
      <stop offset="0.22" stop-color="#E98328" stop-opacity="0.59" />
      <stop offset="0.27" stop-color="#E87E20" stop-opacity="0.73" />
      <stop offset="0.35" stop-color="#E87D1E" />
      <stop offset="0.44" stop-color="white" stop-opacity="0" />
      <stop offset="0.56" stop-color="#E87D1E" />
      <stop offset="0.64" stop-color="#E87E21" stop-opacity="0.77" />
      <stop offset="0.68" stop-color="#E98329" stop-opacity="0.63" />
      <stop offset="0.72" stop-color="#EB8C38" stop-opacity="0.51" />
      <stop offset="0.75" stop-color="#ED984C" stop-opacity="0.41" />
      <stop offset="0.79" stop-color="#EFA767" stop-opacity="0.31" />
      <stop offset="0.81" stop-color="#F3BA88" stop-opacity="0.22" />
      <stop offset="0.84" stop-color="#F7D0AE" stop-opacity="0.14" />
      <stop offset="0.87" stop-color="#FBEADA" stop-opacity="0.06" />
      <stop offset="0.89" stop-color="white" stop-opacity="0" />
    </linearGradient>
    <linearGradient id="paint2_linear_511_439" x1="0.199999" y1="20.7367" x2="71.1925" y2="17.536"
      gradientUnits="userSpaceOnUse">
      <stop offset="0.04" stop-color="white" stop-opacity="0" />
      <stop offset="0.05" stop-color="#FDF4EC" stop-opacity="0.03" />
      <stop offset="0.09" stop-color="#F8D8BC" stop-opacity="0.13" />
      <stop offset="0.12" stop-color="#F4C092" stop-opacity="0.22" />
      <stop offset="0.15" stop-color="#F0AB6E" stop-opacity="0.33" />
      <stop offset="0.19" stop-color="#ED9A51" stop-opacity="0.43" />
      <stop offset="0.23" stop-color="#EB8D3A" stop-opacity="0.55" />
      <stop offset="0.27" stop-color="#E9842A" stop-opacity="0.67" />
      <stop offset="0.32" stop-color="#E87F21" stop-opacity="0.81" />
      <stop offset="0.38" stop-color="#E87D1E" />
      <stop offset="0.43" stop-color="white" stop-opacity="0" />
      <stop offset="0.5" stop-color="#E87D1E" />
      <stop offset="0.57" stop-color="#E87F21" stop-opacity="0.83" />
      <stop offset="0.62" stop-color="#E9852B" stop-opacity="0.7" />
      <stop offset="0.67" stop-color="#EB8F3D" stop-opacity="0.57" />
      <stop offset="0.72" stop-color="#EE9D55" stop-opacity="0.45" />
      <stop offset="0.76" stop-color="#F1AF74" stop-opacity="0.33" />
      <stop offset="0.8" stop-color="#F5C59A" stop-opacity="0.22" />
      <stop offset="0.85" stop-color="#F9DFC8" stop-opacity="0.11" />
      <stop offset="0.89" stop-color="white" stop-opacity="0" />
    </linearGradient>
    <linearGradient id="paint3_linear_511_439" x1="-0.0330826" y1="15.4227" x2="70.9595" y2="12.222"
      gradientUnits="userSpaceOnUse">
      <stop offset="0.07" stop-color="white" stop-opacity="0" />
      <stop offset="0.08" stop-color="#FCEFE4" stop-opacity="0.03" />
      <stop offset="0.09" stop-color="#F8D8BB" stop-opacity="0.07" />
      <stop offset="0.1" stop-color="#F4C295" stop-opacity="0.12" />
      <stop offset="0.11" stop-color="#F1AF75" stop-opacity="0.17" />
      <stop offset="0.13" stop-color="#EE9F59" stop-opacity="0.23" />
      <stop offset="0.15" stop-color="#EC9343" stop-opacity="0.3" />
      <stop offset="0.17" stop-color="#EA8932" stop-opacity="0.38" />
      <stop offset="0.19" stop-color="#E98227" stop-opacity="0.48" />
      <stop offset="0.23" stop-color="#E87E20" stop-opacity="0.62" />
      <stop offset="0.32" stop-color="#E87D1E" />
      <stop offset="0.43" stop-color="white" stop-opacity="0" />
      <stop offset="0.53" stop-color="#E87D1E" />
      <stop offset="0.57" stop-color="#E87F22" stop-opacity="0.85" />
      <stop offset="0.61" stop-color="#E9852C" stop-opacity="0.71" />
      <stop offset="0.65" stop-color="#EB903F" stop-opacity="0.58" />
      <stop offset="0.68" stop-color="#EE9F58" stop-opacity="0.46" />
      <stop offset="0.72" stop-color="#F1B279" stop-opacity="0.34" />
      <stop offset="0.75" stop-color="#F5C9A2" stop-opacity="0.22" />
      <stop offset="0.78" stop-color="#FAE4D1" stop-opacity="0.1" />
      <stop offset="0.81" stop-color="white" stop-opacity="0" />
    </linearGradient>
    <clipPath id="clip0_511_439">
      <rect width="254" height="56" fill="white" />
    </clipPath>
  </defs>
</svg>