<svg width="50" height="50" viewBox="0 0 50 50" fill="none" xmlns="http://www.w3.org/2000/svg">
  <path fill-rule="evenodd" clip-rule="evenodd"
    d="M17.7162 40.5302C18.7334 40.8019 19.5811 40.7113 20.4287 40.4396C24.2432 39.1717 25.0909 37.5415 29.6683 37.3604C30.7703 37.3604 32.5504 37.5415 33.4828 37.9038C33.7371 37.9943 34.3305 38.0849 34.3305 37.6321V33.0132C34.3305 32.017 33.3133 31.7453 31.1941 31.6547C25.9386 31.383 23.7346 33.5566 20.0049 34.3717C19.4115 34.4623 18.4791 34.4623 17.801 34.3717C17.6315 34.3717 17.5467 34.4623 17.6315 34.6434V40.3491C17.5467 40.4396 17.6315 40.4396 17.7162 40.5302ZM17.7162 28.666C18.7334 28.9377 19.5811 28.8472 20.4287 28.5755C24.2432 27.3075 25.0909 25.6774 29.6683 25.4962C30.7703 25.4962 32.5504 25.6774 33.4828 26.0396C33.7371 26.1302 34.3305 26.2208 34.3305 25.7679V21.1491C34.3305 20.1528 33.2285 19.8811 31.1941 19.7906C25.9386 19.5189 23.8194 21.783 20.0049 22.5075C19.4115 22.5981 18.4791 22.5981 17.801 22.5075C17.6315 22.5075 17.5467 22.5981 17.6315 22.7792V28.4849C17.5467 28.5755 17.6315 28.666 17.7162 28.666ZM11.0197 39.8962C12.0369 39.4434 13.5627 40.5302 14.156 40.983C14.7494 41.4359 15.5123 41.2547 15.5123 40.0774V10.734C15.5123 10.1 15.0885 9.8283 14.4951 10.1C13.5627 10.5528 12.0369 9.73774 11.4435 9.28491C10.7654 8.74151 10.0872 9.01321 10.0872 10.3717V39.3528C10.172 39.9868 10.5958 40.0774 11.0197 39.8962ZM17.7162 16.8925C18.7334 17.1642 19.5811 17.0736 20.4287 16.8019C24.2432 15.534 25.0909 13.9038 29.6683 13.7226C30.7703 13.7226 32.5504 13.9038 33.4828 14.266C33.7371 14.3566 34.3305 14.4472 34.3305 13.9943V9.37547C34.3305 8.37925 33.3133 8.19811 31.1941 8.10755C25.9386 7.83585 23.7346 10.0094 20.0049 10.8245C19.4115 10.9151 18.4791 10.9151 17.801 10.8245C17.6315 10.8245 17.5467 10.9151 17.6315 11.0962V16.8019C17.5467 16.8925 17.6315 16.8925 17.7162 16.8925ZM22.3784 2.58302C11.1044 2.58302 1.94963 12.3642 1.94963 24.5C1.94963 36.5453 11.1044 46.417 22.3784 46.417C33.6523 46.417 42.8071 36.5453 42.8071 24.5C42.8071 12.3642 33.6523 2.58302 22.3784 2.58302ZM22.3784 0.5C34.6695 0.5 44.7568 11.2774 44.7568 24.5C44.7568 37.7226 34.6695 48.5 22.3784 48.5C10.0025 48.4094 0 37.6321 0 24.5C0 11.2774 10.0025 0.5 22.3784 0.5Z"
    fill="#0099D8" />
</svg>