<svg width="138" height="49" viewBox="0 0 138 49" fill="none" xmlns="http://www.w3.org/2000/svg">
  <path fill-rule="evenodd" clip-rule="evenodd"
    d="M47.5872 31.0198V8.10662H60.4828V13.1783H53.1976V17.1632H60.0641V22.0538H53.1976V25.8576H60.4828V31.0198H47.5872ZM64.3348 31.0198V8.10662H77.2304V13.1783H69.9452V17.1632H76.8117V22.0538H69.9452V25.8576H77.2304V31.0198H64.3348ZM96.3226 9.01228V15.8047C95.569 14.8991 94.7316 14.1745 93.978 13.7217C93.2243 13.2689 92.387 13.0878 91.4658 13.0878C89.7911 13.0878 88.4513 13.7217 87.4464 14.8991C86.4416 16.167 85.9391 17.7066 85.9391 19.6991C85.9391 21.5104 86.4416 23.05 87.5302 24.2274C88.535 25.4047 89.8748 26.0387 91.5496 26.0387C92.4707 26.0387 93.3081 25.8576 94.0617 25.4047C94.8154 24.9519 95.6527 24.2274 96.4064 23.3217V30.1142C95.4853 30.567 94.5641 30.9293 93.7268 31.201C92.8056 31.4727 91.8845 31.5632 90.9634 31.5632C89.7911 31.5632 88.7862 31.3821 87.7814 31.1104C86.7765 30.8387 85.9391 30.3859 85.1018 29.7519C83.5107 28.5745 82.3384 27.1255 81.501 25.4047C80.6637 23.684 80.245 21.6915 80.245 19.5179C80.245 17.7972 80.4962 16.167 80.9986 14.7179C81.501 13.2689 82.3384 12.001 83.3433 10.8236C84.3481 9.73681 85.4367 8.92171 86.6928 8.28775C87.9489 7.74435 89.3724 7.47266 90.8797 7.47266C91.8008 7.47266 92.7219 7.56322 93.643 7.83492C94.4804 8.19719 95.4015 8.55945 96.3226 9.01228ZM121.193 19.6085C121.193 21.2387 120.942 22.7783 120.355 24.2274C119.769 25.6764 119.016 26.9444 117.927 28.1217C116.838 29.2085 115.666 30.1142 114.243 30.7481C112.903 31.3821 111.395 31.6538 109.972 31.6538C108.465 31.6538 107.041 31.3821 105.618 30.7481C104.278 30.1142 103.022 29.2991 102.017 28.1217C100.928 26.9444 100.091 25.6764 99.5047 24.2274C98.9185 22.7783 98.6673 21.2387 98.6673 19.6085C98.6673 17.9783 98.9185 16.4387 99.5047 14.9896C100.091 13.5406 100.928 12.2727 101.933 11.0953C103.022 10.0085 104.194 9.10285 105.534 8.46888C106.957 7.83492 108.381 7.56322 109.888 7.56322C111.395 7.56322 112.819 7.83492 114.243 8.46888C115.582 9.10285 116.838 9.91794 117.927 11.0953C119.016 12.1821 119.769 13.45 120.355 14.9896C120.858 16.4387 121.193 17.9783 121.193 19.6085ZM109.888 26.3104C111.479 26.3104 112.819 25.6764 113.824 24.4085C114.829 23.1406 115.415 21.5104 115.415 19.6085C115.415 17.7066 114.912 16.0764 113.824 14.8085C112.735 13.5406 111.479 12.9066 109.888 12.9066C108.297 12.9066 106.957 13.5406 105.952 14.8085C104.948 16.0764 104.361 17.7066 104.361 19.6085C104.361 21.601 104.864 23.1406 105.869 24.4085C106.957 25.6764 108.297 26.3104 109.888 26.3104ZM124.794 31.0198V8.10662H130.571V25.5859H137.689V30.9293H124.794V31.0198ZM47.6709 41.2538V32.65H53.8675V34.5519H50.3506V36.001H53.7001V37.8123H50.3506V39.2613H53.8675V41.2538H47.6709ZM59.6455 41.2538V32.65H62.4088V39.2613H65.8421V41.2538H59.6455ZM71.285 41.2538V32.65H77.4816V34.5519H73.9646V36.001H77.3141V37.8123H73.9646V39.2613H77.4816V41.2538H71.285ZM90.6285 32.9217V35.4576C90.2098 35.0953 89.8748 34.8236 89.5399 34.6425C89.1212 34.4613 88.7862 34.3708 88.3675 34.3708C87.6139 34.3708 86.944 34.6425 86.4416 35.0953C85.9391 35.5481 85.6879 36.1821 85.6879 36.9066C85.6879 37.6311 85.9391 38.1745 86.4416 38.6274C86.944 39.0802 87.6139 39.3519 88.3675 39.3519C88.7862 39.3519 89.2049 39.2613 89.5399 39.0802C89.8748 38.8991 90.2935 38.6274 90.6285 38.2651V40.801C90.2098 40.9821 89.7911 41.0727 89.2887 41.1632C88.87 41.2538 88.4513 41.2538 87.9489 41.2538C87.3627 41.2538 86.8603 41.1632 86.4416 41.0727C86.0229 40.9821 85.5205 40.801 85.1855 40.5293C84.4319 40.0764 83.8457 39.533 83.427 38.8991C83.0083 38.2651 82.8408 37.5406 82.8408 36.7255C82.8408 36.0915 82.9246 35.4576 83.2595 34.9142C83.5107 34.3708 83.9294 33.9179 84.4319 33.4651C84.9343 33.0123 85.4367 32.7406 86.0229 32.5595C86.609 32.3783 87.2789 32.2878 88.0326 32.2878C88.4513 32.2878 88.9537 32.2878 89.3724 32.3783C89.7911 32.65 90.2098 32.7406 90.6285 32.9217ZM97.6624 41.2538V34.6425H95.4015V32.65H102.687V34.6425H100.426V41.2538H97.6624ZM108.13 41.2538V32.65H110.977C112.065 32.65 112.903 32.65 113.321 32.7406C113.74 32.8311 114.159 33.0123 114.494 33.1934C114.829 33.3745 115.164 33.7368 115.331 34.0991C115.499 34.4613 115.582 34.8236 115.582 35.2764C115.582 35.9104 115.415 36.4538 114.996 36.9066C114.578 37.3594 114.075 37.6311 113.321 37.7217L116.085 41.1632H112.986L110.642 37.8123V41.2538H108.13ZM110.642 36.7255H111.144C111.73 36.7255 112.149 36.6349 112.484 36.4538C112.735 36.2727 112.903 36.001 112.903 35.6387C112.903 35.1859 112.735 34.9142 112.484 34.733C112.233 34.5519 111.814 34.4613 111.228 34.4613H110.642V36.7255ZM121.277 41.2538V32.65H124.04V41.2538H121.277ZM137.689 32.9217V35.4576C137.27 35.0953 136.936 34.8236 136.601 34.6425C136.182 34.4613 135.847 34.3708 135.428 34.3708C134.675 34.3708 134.005 34.6425 133.502 35.0953C133 35.5481 132.749 36.1821 132.749 36.9066C132.749 37.6311 133 38.1745 133.502 38.6274C134.005 39.0802 134.675 39.3519 135.428 39.3519C135.847 39.3519 136.266 39.2613 136.601 39.0802C136.936 38.8991 137.354 38.6274 137.689 38.2651V40.801C137.27 40.9821 136.852 41.0727 136.349 41.1632C135.931 41.2538 135.512 41.2538 135.01 41.2538C134.423 41.2538 133.921 41.1632 133.502 41.0727C133.084 40.9821 132.581 40.801 132.246 40.5293C131.493 40.0764 130.906 39.533 130.488 38.8991C130.069 38.2651 129.902 37.5406 129.902 36.7255C129.902 36.0915 129.985 35.4576 130.32 34.9142C130.571 34.3708 130.99 33.9179 131.493 33.4651C131.995 33.0123 132.497 32.7406 133.084 32.5595C133.67 32.3783 134.34 32.2878 135.093 32.2878C135.512 32.2878 136.014 32.2878 136.433 32.3783C136.768 32.65 137.187 32.7406 137.689 32.9217Z"
    fill="#0099D8" />
  <path fill-rule="evenodd" clip-rule="evenodd"
    d="M17.7162 40.5302C18.7334 40.8019 19.5811 40.7113 20.4287 40.4396C24.2432 39.1717 25.0909 37.5415 29.6683 37.3604C30.7703 37.3604 32.5504 37.5415 33.4828 37.9038C33.7371 37.9943 34.3305 38.0849 34.3305 37.6321V33.0132C34.3305 32.017 33.3133 31.7453 31.1941 31.6547C25.9386 31.383 23.7346 33.5566 20.0049 34.3717C19.4115 34.4623 18.4791 34.4623 17.801 34.3717C17.6315 34.3717 17.5467 34.4623 17.6315 34.6434V40.3491C17.5467 40.4396 17.6315 40.4396 17.7162 40.5302ZM17.7162 28.666C18.7334 28.9377 19.5811 28.8472 20.4287 28.5755C24.2432 27.3075 25.0909 25.6774 29.6683 25.4962C30.7703 25.4962 32.5504 25.6774 33.4828 26.0396C33.7371 26.1302 34.3305 26.2208 34.3305 25.7679V21.1491C34.3305 20.1528 33.2285 19.8811 31.1941 19.7906C25.9386 19.5189 23.8194 21.783 20.0049 22.5075C19.4115 22.5981 18.4791 22.5981 17.801 22.5075C17.6315 22.5075 17.5467 22.5981 17.6315 22.7792V28.4849C17.5467 28.5755 17.6315 28.666 17.7162 28.666ZM11.0197 39.8962C12.0369 39.4434 13.5627 40.5302 14.156 40.983C14.7494 41.4359 15.5123 41.2547 15.5123 40.0774V10.734C15.5123 10.1 15.0885 9.8283 14.4951 10.1C13.5627 10.5528 12.0369 9.73774 11.4435 9.28491C10.7654 8.74151 10.0872 9.01321 10.0872 10.3717V39.3528C10.172 39.9868 10.5958 40.0774 11.0197 39.8962ZM17.7162 16.8925C18.7334 17.1642 19.5811 17.0736 20.4287 16.8019C24.2432 15.534 25.0909 13.9038 29.6683 13.7226C30.7703 13.7226 32.5504 13.9038 33.4828 14.266C33.7371 14.3566 34.3305 14.4472 34.3305 13.9943V9.37547C34.3305 8.37925 33.3133 8.19811 31.1941 8.10755C25.9386 7.83585 23.7346 10.0094 20.0049 10.8245C19.4115 10.9151 18.4791 10.9151 17.801 10.8245C17.6315 10.8245 17.5467 10.9151 17.6315 11.0962V16.8019C17.5467 16.8925 17.6315 16.8925 17.7162 16.8925ZM22.3784 2.58302C11.1044 2.58302 1.94963 12.3642 1.94963 24.5C1.94963 36.5453 11.1044 46.417 22.3784 46.417C33.6523 46.417 42.8071 36.5453 42.8071 24.5C42.8071 12.3642 33.6523 2.58302 22.3784 2.58302ZM22.3784 0.5C34.6695 0.5 44.7568 11.2774 44.7568 24.5C44.7568 37.7226 34.6695 48.5 22.3784 48.5C10.0025 48.4094 0 37.6321 0 24.5C0 11.2774 10.0025 0.5 22.3784 0.5Z"
    fill="#0099D8" />
</svg>