<svg width="148" height="29" viewBox="0 0 148 29" fill="none" xmlns="http://www.w3.org/2000/svg">
  <path fill-rule="evenodd" clip-rule="evenodd"
    d="M97.2299 8.04305C93.3035 8.04305 90.3421 11.2092 90.3421 15.4078C90.3421 19.6063 93.3841 22.7465 97.5742 22.7465C99.8204 22.7465 101.684 21.9441 103.114 20.362C103.181 20.2873 103.215 20.1905 103.209 20.0891C103.204 19.9858 103.156 19.887 103.079 19.8182L101.682 18.5791C101.534 18.4479 101.311 18.4518 101.163 18.5876C100.054 19.6005 98.9958 20.0326 97.6269 20.0326C95.5757 20.0326 93.7629 18.4505 93.6414 16.5669H103.521C103.72 16.5669 103.89 16.4103 103.906 16.2102C103.92 16.0367 103.933 15.8483 103.933 15.6475C103.933 13.5534 103.34 11.6608 102.264 10.3184C101.072 8.83052 99.3305 8.04434 97.2286 8.04434L97.2299 8.04305ZM100.712 14.1772H93.6141C93.6368 12.2247 95.1722 10.7576 97.2032 10.7576C99.3519 10.7576 100.689 12.5236 100.712 14.1772Z"
    fill="white" />
  <path fill-rule="evenodd" clip-rule="evenodd"
    d="M140.503 8.04305C136.283 8.04305 132.978 11.2898 132.978 15.4344C132.978 19.5342 136.26 22.7459 140.449 22.7459C144.683 22.7459 148 19.5108 148 15.3811C148 13.3994 147.244 11.5562 145.872 10.1911C144.48 8.80583 142.573 8.04305 140.503 8.04305ZM144.702 15.4344C144.702 18.0061 142.936 19.8727 140.503 19.8727C138.07 19.8727 136.277 17.9417 136.277 15.3811C136.277 12.8205 138.032 10.9428 140.45 10.9428C142.874 10.9428 144.703 12.8738 144.703 15.4344H144.702Z"
    fill="white" />
  <path
    d="M130.198 18.4693C130.049 18.3218 129.81 18.3212 129.657 18.4693C128.587 19.4933 127.518 19.9702 126.293 19.9702C123.929 19.9702 122.147 18.0392 122.147 15.4786C122.147 12.918 123.898 11.0403 126.134 11.0403C127.428 11.0403 128.432 11.4847 129.49 12.5262C129.564 12.599 129.66 12.6386 129.763 12.6386H129.772C129.874 12.636 129.97 12.5931 130.039 12.5178L131.573 10.8622C131.713 10.7115 131.711 10.4795 131.57 10.3347C130.118 8.83767 128.399 8.14051 126.16 8.14051C122.059 8.14051 118.848 11.3872 118.848 15.5319C118.848 19.6765 122.048 22.8433 126.133 22.8433C128.426 22.8433 130.082 22.1267 131.671 20.4471C131.813 20.297 131.807 20.056 131.659 19.9091L130.198 18.4687V18.4693Z"
    fill="white" />
  <path
    d="M112.468 14.1635V14.1655C114.743 14.875 116.849 15.8658 116.849 18.2926V18.3459C116.849 21.089 114.84 22.7933 111.606 22.7933C109.63 22.7933 107.548 22.0974 105.894 20.8844C105.729 20.7635 105.69 20.5335 105.804 20.3607L106.863 18.7513C106.921 18.6649 107.008 18.6064 107.11 18.5869C107.214 18.5668 107.322 18.5895 107.41 18.6519C108.796 19.6232 110.314 20.158 111.684 20.158C113.018 20.158 113.815 19.609 113.815 18.6902V18.637C113.815 17.6557 112.533 17.267 111.049 16.817L111.046 16.8164L110.717 16.7163C108.585 16.1147 106.309 15.2486 106.309 12.5626V12.5093C106.309 9.96886 108.378 8.19444 111.34 8.19444C112.967 8.19444 114.751 8.71293 116.235 9.618C116.41 9.72521 116.468 9.95197 116.366 10.1352L115.42 11.829C115.371 11.9181 115.289 11.983 115.19 12.0103C115.09 12.0383 114.983 12.0253 114.891 11.9726C113.593 11.2345 112.303 10.8285 111.261 10.8285C110.095 10.8285 109.342 11.3625 109.342 12.1896V12.2429C109.342 13.1622 110.663 13.5852 112.192 14.075L112.468 14.1635Z"
    fill="white" />
  <path
    d="M86.2838 8.41859H88.7742L88.7755 8.42054C88.9009 8.42054 89.0146 8.47837 89.0881 8.57973C89.1615 8.68043 89.1816 8.80648 89.1426 8.92538L84.7764 22.3528C84.7245 22.512 84.577 22.6192 84.4093 22.6192H82.0157C81.8624 22.6192 81.7233 22.5282 81.6623 22.3885L78.6624 15.3681L75.6366 22.3892C75.5743 22.5282 75.4359 22.6185 75.2838 22.6185H72.8902C72.7219 22.6185 72.5744 22.5107 72.5231 22.3508L68.2069 8.92343C68.1692 8.80453 68.1894 8.67848 68.2628 8.57778C68.3362 8.47707 68.4499 8.41924 68.5747 8.41924H71.145C71.314 8.41924 71.4614 8.52775 71.5128 8.68888L74.2157 17.9547L78.3564 8.9988C78.4129 8.87665 78.5351 8.79804 78.6702 8.79804C78.8041 8.79804 78.9269 8.876 78.9834 8.9975L83.1612 17.9554L85.9161 8.68693C85.9687 8.5258 86.1162 8.41859 86.2838 8.41859Z"
    fill="white" />
  <path fill-rule="evenodd" clip-rule="evenodd"
    d="M0.0888198 1.12264L13.7876 26.8914L21.2697 12.8162L14.7675 0.577541C14.5793 0.227123 14.2094 0 13.8135 0H0.757211C0.186158 0.00648923 -0.177239 0.616477 0.0888198 1.12264ZM46.6101 28.1049L60.9578 1.12265C61.2238 0.61649 60.8604 0.0065014 60.2894 0.0065014H46.3505C45.9482 0.0065014 45.5848 0.227136 45.3966 0.584044L37.9534 14.5683L45.15 28.1049C45.2928 28.3774 45.5718 28.5461 45.8768 28.5461C46.1883 28.5397 46.4673 28.3709 46.6101 28.1049ZM29.8744 28.5396H14.6701L29.3034 1.03178C29.4461 0.759233 29.7252 0.590513 30.0302 0.590513C30.3351 0.590513 30.6142 0.765722 30.7569 1.03178L37.9535 14.5618L30.8283 27.9621C30.6401 28.319 30.2767 28.5396 29.8744 28.5396Z"
    fill="#00AA13" />
</svg>